<?xml version="1.0" encoding="iso-8859-1"?>
<!-- Uploaded to: SVG Repo, www.svgrepo.com, Generator: SVG Repo Mixer Tools -->
<svg height="800px" width="800px" version="1.1" id="Layer_1" xmlns="http://www.w3.org/2000/svg" xmlns:xlink="http://www.w3.org/1999/xlink" 
	 viewBox="0 0 512 512" xml:space="preserve">
<g>
	<path style="fill:#F1B14F;" d="M256,0C114.617,0,0,114.617,0,256s114.617,256,256,256s256-114.617,256-256S397.383,0,256,0L256,0z"
		/>
	<path style="fill:#FED9CA;" d="M255.804,512H256H255.804L255.804,512z M256.207,512H256H256.207L256.207,512z M255.623,512
		L255.623,512L255.623,512L255.623,512z M256.408,512h-0.171H256.408L256.408,512z M256.605,512h-0.124H256.605L256.605,512z
		 M256.806,512h-0.103H256.806L256.806,512z M257.013,512h-0.109H257.013L257.013,512z M257.214,511.995h-0.114H257.214
		L257.214,511.995z M257.416,511.995h-0.109H257.416L257.416,511.995z M257.617,511.995h-0.103H257.617L257.617,511.995z
		 M257.824,511.995h-0.108H257.824L257.824,511.995z M258.026,511.99h-0.109H258.026L258.026,511.99z M258.222,511.99h-0.098
		H258.222L258.222,511.99z M258.429,511.99h-0.103H258.429L258.429,511.99z M258.625,511.984h-0.098H258.625L258.625,511.984z
		 M258.826,511.984h-0.098H258.826L258.826,511.984z M259.033,511.984h-0.098H259.033L259.033,511.984z M259.229,511.979h-0.098
		H259.229L259.229,511.979z M259.421,511.979h-0.083H259.421L259.421,511.979z M259.617,511.974h-0.077H259.617L259.617,511.974z
		 M259.803,511.974h-0.057H259.803L259.803,511.974z M259.984,511.969h-0.036H259.984L259.984,511.969z M261.131,511.948
		L261.131,511.948L261.131,511.948L261.131,511.948z M261.327,511.943h-0.005H261.327L261.327,511.943z M261.534,511.943h-0.031
		H261.534L261.534,511.943z M261.725,511.938h-0.015H261.725L261.725,511.938z M261.922,511.933h-0.016H261.922L261.922,511.933z
		 M262.123,511.928h-0.021H262.123L262.123,511.928z M262.325,511.922h-0.031H262.325L262.325,511.922z M262.511,511.917h-0.005
		H262.511L262.511,511.917z M262.707,511.912L262.707,511.912L262.707,511.912L262.707,511.912z"/>
	<path style="fill:#F0973E;" d="M78.003,229.963L78.003,229.963L78.003,229.963L78.003,229.963L78.003,229.963z M458.479,221.36
		L458.479,221.36l-60.461,60.461h-65.059h65.064v52.198H251.127v15.031v14.122v16.023H112.375H78.003v-97.039v-52.193l0,0l0,0
		v52.198V379.2l130.754,128.377c15.202,2.837,30.848,4.397,46.866,4.423l0,0h0.181H256h0.207h0.031h0.171h0.072h0.124h0.098h0.103
		h0.098h0.109h0.088h0.114h0.093h0.109h0.098h0.103h0.098h0.109h0.093h0.109h0.098h0.098h0.103h0.103h0.098h0.098h0.103h0.098h0.103
		h0.098h0.098h0.098h0.108h0.083h0.119h0.078h0.124h0.057h0.145h0.036l1.147-0.021l0,0l0.191-0.005h0.005l0.171-0.005h0.031
		l0.181-0.005h0.015l0.181-0.005h0.016l0.181-0.005h0.021l0.171-0.005h0.031l0.181-0.005h0.005l0.191-0.005h0.005
		c131.974-3.395,239.026-106.691,248.528-237.063L458.479,221.36L458.479,221.36z M393.079,169.502l-51.862,51.857l0,0
		L393.079,169.502L393.079,169.502z M393.079,169.502L393.079,169.502v51.862h47.548L393.079,169.502L393.079,169.502z
		 M286.326,90.802c-1.586,0-3.173,1.87-4.371,5.617l-14.778,45.998l-16.049-17.832v15.765v14.122v15.031h77.574h37.234l-0.021-0.031
		c-0.744-0.935-76.52-76.329-77.264-77.264C287.912,91.272,287.122,90.802,286.326,90.802L286.326,90.802z"/>
	<polygon style="fill:#D45446;" points="143.408,334.024 143.408,281.82 398.018,281.82 398.018,334.024 	"/>
	<polygon style="fill:#E46A5D;" points="143.408,281.82 203.869,221.36 458.479,221.36 398.018,281.82 	"/>
	<path style="fill:#D45446;" d="M416.858,232.35l-38.485,38.485c-2.051,2.051-0.388,3.72,3.72,3.72s9.099-1.664,11.156-3.72
		l38.485-38.485c2.051-2.051,0.388-3.72-3.72-3.72C423.901,228.63,418.909,230.299,416.858,232.35L416.858,232.35z M380.486,241.46
		c-4.129,0-9.089,1.653-11.156,3.72c-2.046,2.046-0.408,3.72,3.72,3.72c4.087,0,9.11-1.674,11.156-3.72
		C386.268,243.113,384.579,241.46,380.486,241.46L380.486,241.46z M367.662,254.285c-4.129,0-9.11,1.674-11.156,3.72
		c-2.067,2.062-0.408,3.72,3.72,3.72c4.087,0,9.089-1.653,11.156-3.72C373.423,255.959,371.749,254.285,367.662,254.285
		L367.662,254.285z M397.476,229.71c-0.682-0.687-2.191-1.08-4.16-1.08c-1.974,0-4.299,0.393-6.376,1.095
		c-2.062,0.687-3.813,1.653-4.78,2.62c-0.966,0.966-1.152,1.933-0.465,2.62c0.708,0.708,2.212,1.095,4.18,1.095
		c1.932,0,4.258-0.393,6.335-1.095C396.344,233.595,398.856,231.125,397.476,229.71L397.476,229.71z M358.976,268.21
		c-0.667-0.708-2.175-1.095-4.144-1.095c-1.974,0-4.299,0.393-6.376,1.095c-2.062,0.687-3.808,1.653-4.78,2.62
		c-0.987,0.987-1.152,1.933-0.465,2.62c0.708,0.708,2.212,1.095,4.185,1.095c1.933,0,4.258-0.393,6.335-1.095
		C357.896,272.08,360.371,269.605,358.976,268.21L358.976,268.21z M323.839,270.835l38.485-38.485c2.051-2.051,0.388-3.72-3.72-3.72
		s-9.099,1.664-11.156,3.72l-38.485,38.485c-2.051,2.051-0.388,3.72,3.72,3.72C316.791,274.55,321.788,272.886,323.839,270.835
		L323.839,270.835z M273.816,273.47c0.687,0.687,2.196,1.08,4.165,1.08c1.969,0,4.294-0.393,6.376-1.095
		c4.123-1.374,6.614-3.865,5.245-5.245c-0.708-0.708-2.212-1.095-4.18-1.095c-1.938,0-4.258,0.393-6.34,1.095
		c-2.103,0.687-3.829,1.638-4.816,2.62C273.279,271.817,273.114,272.767,273.816,273.47L273.816,273.47z M290.811,261.725
		c4.123,0,9.11-1.674,11.156-3.72c2.046-2.046,0.408-3.72-3.72-3.72c-4.092,0-9.11,1.674-11.156,3.72
		C285.044,260.051,286.719,261.725,290.811,261.725L290.811,261.725z M312.745,232.35c-0.966,0.966-1.152,1.933-0.429,2.62
		c0.672,0.708,2.175,1.095,4.144,1.095c1.969,0,4.294-0.393,6.376-1.095c4.123-1.374,6.598-3.85,5.245-5.245
		c-0.672-0.708-2.217-1.095-4.185-1.095c-1.932,0-4.258,0.393-6.34,1.095C315.458,230.418,313.732,231.363,312.745,232.35
		L312.745,232.35z M303.636,248.895c4.123,0,9.11-1.674,11.156-3.72c2.062-2.062,0.408-3.72-3.72-3.72
		c-4.092,0-9.089,1.653-11.156,3.72C297.874,247.221,299.543,248.895,303.636,248.895L303.636,248.895z M254.434,270.835
		l38.485-38.485c2.051-2.051,0.388-3.72-3.72-3.72c-4.108,0-9.099,1.664-11.156,3.72l-38.485,38.485
		c-2.051,2.051-0.388,3.72,3.72,3.72C247.386,274.55,252.383,272.886,254.434,270.835L254.434,270.835z M221.432,261.725
		c4.087,0,9.089-1.653,11.156-3.72c2.046-2.046,0.372-3.72-3.72-3.72c-4.129,0-9.11,1.674-11.156,3.72
		C215.65,260.067,217.303,261.725,221.432,261.725L221.432,261.725z M234.257,248.895c4.087,0,9.11-1.674,11.156-3.72
		c2.062-2.062,0.372-3.72-3.72-3.72c-4.129,0-9.089,1.653-11.156,3.72C228.495,247.221,230.128,248.895,234.257,248.895
		L234.257,248.895z M204.422,273.455c0.672,0.708,2.212,1.095,4.185,1.095c1.933,0,4.258-0.393,6.34-1.095
		c4.123-1.374,6.614-3.865,5.245-5.245c-0.672-0.708-2.212-1.095-4.144-1.095c-1.974,0-4.258,0.393-6.376,1.095
		c-2.067,0.687-3.85,1.653-4.816,2.62C203.859,271.817,203.735,272.767,204.422,273.455L204.422,273.455z M243.325,232.35
		c-0.966,0.966-1.111,1.933-0.424,2.62c0.708,0.708,2.212,1.095,4.185,1.095c1.933,0,4.258-0.393,6.34-1.095
		c4.123-1.374,6.614-3.865,5.245-5.245c-0.672-0.708-2.217-1.095-4.144-1.095c-1.974,0-4.294,0.393-6.376,1.095
		C246.079,230.418,244.312,231.363,243.325,232.35L243.325,232.35z M185.035,270.835l38.485-38.485
		c2.051-2.051,0.388-3.72-3.72-3.72c-4.108,0-9.099,1.664-11.156,3.72l-38.485,38.485c-2.051,2.051-0.388,3.72,3.72,3.72
		C177.987,274.55,182.978,272.886,185.035,270.835L185.035,270.835z"/>
	<path style="fill:#D04E41;" d="M347.474,281.82h-14.122v0.341h0.295v51.862h-0.295h14.122V281.82L347.474,281.82z M382.254,281.82
		h-14.122v52.198h14.122V281.82L382.254,281.82z"/>
	<polygon style="fill:#BF4739;" points="458.479,273.563 398.018,334.024 398.018,281.82 458.479,221.36 	"/>
	<polygon style="fill:#D45446;" points="78.003,282.161 78.003,229.963 332.618,229.963 332.618,282.161 	"/>
	<polygon style="fill:#E46A5D;" points="78.003,229.963 138.463,169.502 393.079,169.502 332.618,229.963 	"/>
	<path style="fill:#D45446;" d="M351.452,180.488l-38.485,38.485c-2.051,2.051-0.388,3.72,3.72,3.72
		c4.108,0,9.099-1.664,11.156-3.72l38.485-38.485c2.051-2.051,0.388-3.72-3.72-3.72C358.5,176.772,353.509,178.436,351.452,180.488
		L351.452,180.488z M315.086,189.597c-4.129,0-9.089,1.653-11.156,3.72c-2.046,2.046-0.408,3.72,3.72,3.72
		c4.087,0,9.11-1.674,11.156-3.72C320.868,191.256,319.173,189.597,315.086,189.597L315.086,189.597z M302.261,202.427
		c-4.129,0-9.11,1.674-11.156,3.72c-2.062,2.062-0.408,3.72,3.72,3.72c4.087,0,9.089-1.653,11.156-3.72
		C308.023,204.101,306.348,202.427,302.261,202.427L302.261,202.427z M332.076,177.852c-0.682-0.687-2.191-1.08-4.16-1.08
		c-1.974,0-4.299,0.388-6.376,1.095c-2.067,0.687-3.813,1.653-4.78,2.62c-0.966,0.966-1.152,1.933-0.465,2.62
		c0.708,0.708,2.212,1.095,4.185,1.095c1.932,0,4.258-0.388,6.335-1.095C330.944,181.738,333.45,179.263,332.076,177.852
		L332.076,177.852z M293.575,216.353c-0.667-0.708-2.175-1.095-4.144-1.095c-1.974,0-4.299,0.393-6.376,1.095
		c-2.062,0.687-3.808,1.653-4.78,2.62c-0.987,0.987-1.152,1.933-0.465,2.62c0.708,0.708,2.212,1.095,4.18,1.095
		c1.932,0,4.258-0.393,6.335-1.095C292.495,220.218,294.97,217.748,293.575,216.353L293.575,216.353z M258.439,218.972
		l38.485-38.485c2.051-2.051,0.388-3.72-3.72-3.72c-4.108,0-9.099,1.664-11.156,3.72l-38.485,38.485
		c-2.051,2.051-0.388,3.72,3.72,3.72S256.382,221.029,258.439,218.972L258.439,218.972z M208.416,221.613
		c0.687,0.687,2.196,1.075,4.165,1.075s4.294-0.393,6.376-1.095c4.123-1.374,6.614-3.865,5.245-5.245
		c-0.708-0.708-2.212-1.095-4.18-1.095c-1.933,0-4.258,0.393-6.34,1.095c-2.103,0.687-3.829,1.638-4.816,2.62
		C207.879,219.959,207.708,220.905,208.416,221.613L208.416,221.613z M225.405,209.863c4.123,0,9.11-1.674,11.156-3.72
		c2.046-2.046,0.408-3.72-3.72-3.72c-4.092,0-9.11,1.674-11.156,3.72C219.644,208.189,221.318,209.863,225.405,209.863
		L225.405,209.863z M247.345,180.493c-0.966,0.966-1.152,1.933-0.429,2.62c0.672,0.708,2.175,1.095,4.149,1.095
		c1.969,0,4.294-0.388,6.376-1.095c4.123-1.374,6.598-3.85,5.245-5.245c-0.672-0.708-2.217-1.095-4.185-1.095
		c-1.938,0-4.258,0.388-6.34,1.095C250.058,178.555,248.332,179.506,247.345,180.493L247.345,180.493z M238.235,197.038
		c4.123,0,9.11-1.674,11.156-3.72c2.062-2.062,0.408-3.72-3.72-3.72c-4.092,0-9.089,1.653-11.156,3.72
		C232.474,195.364,234.143,197.038,238.235,197.038L238.235,197.038z M189.034,218.972l38.485-38.485
		c2.051-2.051,0.388-3.72-3.72-3.72s-9.099,1.664-11.156,3.72l-38.485,38.485c-2.051,2.051-0.388,3.72,3.72,3.72
		S186.978,221.029,189.034,218.972L189.034,218.972z M156.027,209.863c4.087,0,9.089-1.653,11.156-3.72
		c2.046-2.046,0.372-3.72-3.72-3.72c-4.129,0-9.11,1.674-11.156,3.72C150.244,208.209,151.898,209.863,156.027,209.863
		L156.027,209.863z M168.856,197.038c4.087,0,9.11-1.674,11.156-3.72c2.062-2.062,0.372-3.72-3.72-3.72
		c-4.129,0-9.089,1.653-11.156,3.72C163.09,195.364,164.728,197.038,168.856,197.038L168.856,197.038z M139.016,221.592
		c0.672,0.708,2.212,1.095,4.185,1.095c1.933,0,4.258-0.393,6.34-1.095c4.123-1.374,6.614-3.865,5.239-5.245
		c-0.672-0.708-2.212-1.095-4.144-1.095c-1.974,0-4.258,0.393-6.376,1.095c-2.062,0.687-3.85,1.653-4.816,2.62
		C138.458,219.959,138.329,220.905,139.016,221.592L139.016,221.592z M177.925,180.493c-0.966,0.966-1.111,1.933-0.424,2.62
		c0.708,0.708,2.212,1.095,4.185,1.095c1.933,0,4.258-0.388,6.34-1.095c4.123-1.374,6.614-3.865,5.245-5.245
		c-0.672-0.708-2.217-1.095-4.149-1.095c-1.974,0-4.294,0.388-6.376,1.095C180.679,178.555,178.912,179.506,177.925,180.493
		L177.925,180.493z M119.629,218.972l38.485-38.485c2.051-2.051,0.388-3.72-3.72-3.72s-9.099,1.664-11.156,3.72l-38.485,38.485
		c-2.051,2.051-0.388,3.72,3.72,3.72S117.578,221.029,119.629,218.972L119.629,218.972z"/>
	<polygon style="fill:#D04E41;" points="316.853,229.963 302.732,229.963 302.732,257.69 316.853,269.042 	"/>
	<polygon style="fill:#D04E41;" points="282.068,229.963 268.246,229.963 282.068,241.077 	"/>
	<polygon style="fill:#BF4739;" points="393.079,221.701 332.618,282.161 332.618,229.963 393.079,169.502 	"/>
	<polygon style="fill:#D86B2B;" points="328.701,169.502 251.127,169.502 251.127,169.502 328.701,169.502 	"/>
	<path style="fill:#BF3C30;" d="M263.782,282.161h-12.654v11.445v20.663v14.122v5.632h12.654V282.161L263.782,282.161z
		 M298.567,282.161h-20.663v51.862h20.663V282.161L298.567,282.161z M332.618,281.82L332.618,281.82v0.341h-19.93v51.862h20.663
		v-51.862h-0.181l-0.305-0.243l-0.248,0.248V281.82L332.618,281.82z"/>
	<path style="fill:#BB382D;" d="M333.646,282.161h-0.295v51.862h0.295V282.161L333.646,282.161z M277.903,282.161h-14.122v51.862
		h14.122V282.161L277.903,282.161z M312.689,282.161h-14.122v51.862h14.122V282.161L312.689,282.161z"/>
	<polygon style="fill:#BF3C30;" points="267.952,229.963 251.127,229.963 251.127,244.699 251.127,258.821 251.127,279.485 
		251.127,282.161 263.782,282.161 277.903,282.161 298.567,282.161 312.689,282.161 332.618,282.161 332.618,281.82 
		332.618,281.717 316.853,269.042 316.853,282.161 302.732,282.161 302.732,257.69 282.068,241.077 282.068,282.161 
		267.952,282.161 	"/>
	<path style="fill:#CD4C40;" d="M328.701,169.502h-77.574v5.632v3.105l1.028-0.372c2.082-0.708,4.402-1.095,6.34-1.095
		c1.969,0,3.514,0.388,4.185,1.095c1.354,1.395-1.116,3.865-5.245,5.245c-2.057,0.698-4.356,1.085-6.309,1.095v5.043v20.663v1.493
		l30.92-30.92c2.051-2.051,7.048-3.72,11.156-3.72c4.108,0,5.772,1.664,3.72,3.72l-38.485,38.485
		c-1.436,1.436-4.309,2.682-7.311,3.302v1.762v5.927h16.824h0.294l0,0l9.161-9.161c-0.067-0.553,0.227-1.183,0.873-1.829
		c0.636-0.636,1.602-1.266,2.775-1.824l9.172-9.172c-0.067-0.537,0.212-1.163,0.878-1.834c0.661-0.661,1.633-1.287,2.78-1.824
		l9.177-9.177c-0.067-0.537,0.207-1.163,0.868-1.824c0.667-0.667,1.638-1.292,2.785-1.834l9.172-9.172
		c-0.062-0.553,0.232-1.188,0.868-1.824c0.636-0.636,1.602-1.266,2.78-1.824L328.701,169.502L328.701,169.502z"/>
	<path style="fill:#BF3C30;" d="M281.055,217.148c-1.173,0.553-2.144,1.188-2.775,1.824c-0.646,0.646-0.94,1.276-0.873,1.829
		L281.055,217.148L281.055,217.148z M293.885,204.318c-1.147,0.537-2.119,1.163-2.78,1.824c-0.667,0.667-0.946,1.292-0.878,1.834
		L293.885,204.318L293.885,204.318z M306.721,191.483c-1.147,0.537-2.119,1.163-2.785,1.834c-0.661,0.661-0.94,1.287-0.868,1.824
		L306.721,191.483L306.721,191.483z M319.535,178.669c-1.173,0.553-2.144,1.188-2.78,1.824c-0.636,0.636-0.93,1.266-0.868,1.824
		L319.535,178.669L319.535,178.669z M258.496,176.772c-1.938,0-4.258,0.388-6.34,1.095l-1.028,0.372v5.968
		c1.953-0.01,4.253-0.398,6.309-1.095c4.123-1.374,6.598-3.85,5.245-5.245C262.009,177.16,260.464,176.772,258.496,176.772
		L258.496,176.772z M293.203,176.772c-4.108,0-9.099,1.664-11.156,3.72l-30.92,30.92v10.861c3.002-0.62,5.875-1.865,7.311-3.302
		l38.485-38.485C298.975,178.436,297.311,176.772,293.203,176.772L293.203,176.772z"/>
	<polygon style="fill:#BB382D;" points="268.246,229.963 267.952,229.963 267.952,282.161 282.068,282.161 282.068,241.077 	"/>
	<polygon style="fill:#BB382D;" points="302.732,257.69 302.732,282.161 316.853,282.161 316.853,269.042 	"/>
	<polygon style="fill:#AC3327;" points="332.618,281.717 332.618,281.82 332.618,282.161 332.866,281.918 	"/>
	<polygon style="fill:#D45446;" points="251.127,379.2 112.375,379.2 112.375,124.585 251.127,124.585 	"/>
	<polygon style="fill:#E46A5D;" points="198.929,379.2 78.003,379.2 78.003,124.585 198.929,124.585 	"/>
	<path style="fill:#D45446;" d="M99.984,155.22h76.969c4.108,0,7.435-3.328,7.435-7.435s-3.328-7.435-7.435-7.435H99.984
		c-4.108,0-7.435,3.328-7.435,7.435C92.548,151.893,95.876,155.22,99.984,155.22z M118.203,182.477c0,4.129,3.312,7.435,7.435,7.435
		c4.092,0,7.435-3.307,7.435-7.435c0-4.087-3.348-7.435-7.435-7.435C121.51,175.042,118.203,178.39,118.203,182.477z
		 M143.858,182.477c0,4.129,3.348,7.435,7.435,7.435c4.129,0,7.435-3.307,7.435-7.435c0-4.087-3.307-7.435-7.435-7.435
		C147.201,175.042,143.858,178.39,143.858,182.477z M94.703,177.238c-1.374,1.374-2.155,3.271-2.155,5.239
		c0,1.974,0.78,3.906,2.191,5.281c1.374,1.374,3.312,2.155,5.245,2.155c1.933,0,3.865-0.78,5.245-2.155
		c1.411-1.411,2.191-3.307,2.191-5.281c0-1.933-0.78-3.865-2.191-5.239C102.474,174.489,97.529,174.452,94.703,177.238z
		 M171.704,177.238c-1.411,1.374-2.196,3.271-2.196,5.239c0,1.974,0.78,3.906,2.196,5.281c1.374,1.374,3.307,2.155,5.239,2.155
		c1.974,0,3.865-0.78,5.245-2.155c1.411-1.411,2.191-3.307,2.191-5.281c0-1.933-0.78-3.865-2.191-5.239
		C179.439,174.452,174.494,174.452,171.704,177.238z M176.948,209.754H99.984c-4.108,0-7.435,3.328-7.435,7.435
		c0,4.108,3.328,7.435,7.435,7.435h76.969c4.108,0,7.435-3.328,7.435-7.435C184.389,213.082,181.056,209.754,176.948,209.754z
		 M182.229,257.137c1.374-1.374,2.155-3.271,2.155-5.245c0-1.969-0.78-3.901-2.191-5.281c-2.749-2.749-7.735-2.749-10.484,0
		c-1.411,1.411-2.196,3.312-2.196,5.281c0,1.938,0.78,3.865,2.196,5.245c1.374,1.411,3.271,2.191,5.239,2.191
		C178.917,259.333,180.813,258.553,182.229,257.137z M158.729,251.892c0-4.123-3.348-7.436-7.435-7.436
		c-4.092,0-7.435,3.312-7.435,7.436c0,4.092,3.348,7.435,7.435,7.435C155.381,259.333,158.729,255.985,158.729,251.892z
		 M99.984,259.333c1.933,0,3.865-0.78,5.245-2.191c1.411-1.374,2.191-3.271,2.191-5.245c0-1.969-0.78-3.901-2.191-5.281
		c-2.754-2.749-7.699-2.749-10.484,0c-1.411,1.374-2.191,3.312-2.191,5.281c0,1.938,0.78,3.865,2.191,5.245
		C96.119,258.553,98.015,259.333,99.984,259.333z M133.074,251.892c0-4.123-3.348-7.436-7.435-7.436
		c-4.129,0-7.435,3.312-7.435,7.436c0,4.092,3.312,7.435,7.435,7.435C129.731,259.333,133.074,255.985,133.074,251.892z
		 M176.948,279.159H99.984c-4.108,0-7.435,3.328-7.435,7.435s3.328,7.435,7.435,7.435h76.969c4.108,0,7.435-3.328,7.435-7.435
		C184.389,282.487,181.056,279.159,176.948,279.159z M158.729,321.276c0-4.087-3.307-7.435-7.435-7.435
		c-4.092,0-7.435,3.348-7.435,7.435c0,4.129,3.348,7.435,7.435,7.435C155.422,328.712,158.729,325.4,158.729,321.276z
		 M133.074,321.276c0-4.087-3.348-7.435-7.435-7.435c-4.129,0-7.435,3.348-7.435,7.435c0,4.129,3.312,7.435,7.435,7.435
		C129.731,328.712,133.074,325.4,133.074,321.276z M182.188,326.552c1.411-1.374,2.191-3.307,2.191-5.281
		c0-1.932-0.78-3.865-2.191-5.245c-2.749-2.749-7.735-2.749-10.484,0c-1.411,1.374-2.196,3.312-2.196,5.245
		c0,1.974,0.78,3.865,2.196,5.281c1.374,1.374,3.307,2.196,5.239,2.196C178.917,328.748,180.813,327.932,182.188,326.552z
		 M99.984,328.748c1.933,0,3.865-0.822,5.245-2.196c1.411-1.411,2.191-3.307,2.191-5.281c0-1.932-0.78-3.865-2.191-5.245
		c-2.754-2.749-7.735-2.749-10.484,0c-1.411,1.374-2.191,3.312-2.191,5.245c0,1.974,0.78,3.901,2.191,5.281
		C96.119,327.932,98.015,328.748,99.984,328.748z M176.948,348.559H99.984c-4.108,0-7.435,3.328-7.435,7.435
		c0,4.108,3.328,7.436,7.435,7.436h76.969c4.108,0,7.435-3.328,7.435-7.436C184.389,351.886,181.056,348.559,176.948,348.559z"/>
	<path style="fill:#D04E41;" d="M251.127,349.055h-52.198v14.122h52.198V349.055L251.127,349.055z M251.127,314.27h-52.198v14.122
		h52.198V314.27L251.127,314.27z M251.127,279.485h-52.198v14.122h52.198V279.485L251.127,279.485z M251.127,244.699h-52.198v14.122
		h52.198V244.699L251.127,244.699z M251.127,209.92h-52.198v14.122h52.198v-1.762v-10.861V209.92L251.127,209.92z M251.127,175.135
		h-52.198v14.122h52.198v-5.048v-5.968V175.135L251.127,175.135z M251.127,140.349h-52.198v14.122h52.198V140.349L251.127,140.349z"
		/>
	<path style="fill:#CEEAF2;" d="M290.702,99.276c-2.408-7.487-6.34-7.487-8.748,0L231.56,256.129
		c-2.408,7.487,2.062,13.615,9.926,13.615h89.691c7.864,0,12.329-6.128,9.926-13.615L290.702,99.276z"/>
	<path style="fill:#FFFFFF;" d="M290.702,96.419c-2.408-7.487-6.34-7.487-8.748,0L231.56,253.272
		c-2.408,7.487,2.062,13.615,9.926,13.615h89.691c7.864,0,12.329-6.128,9.926-13.615L290.702,96.419z"/>
	<path style="fill:#CEEAF2;" d="M341.097,253.267L290.702,96.419c-1.204-3.741-2.79-5.617-4.371-5.617v176.08h44.845
		C339.036,266.882,343.5,260.754,341.097,253.267z"/>
	<path style="fill:#FFFFFF;" d="M312.673,353.891c-2.372,0-4.289-1.922-4.289-4.289v-33.814c0-5.518-3.984-10.009-8.882-10.009
		c-9.632,0-17.465-8.34-17.465-18.586v-31.008c0-2.367,1.922-4.289,4.289-4.289c2.372,0,4.289,1.922,4.289,4.289v31.008
		c0,5.518,3.984,10.009,8.882,10.009c9.632,0,17.465,8.34,17.465,18.586v33.814C316.967,351.969,315.045,353.891,312.673,353.891z"
		/>
	<path style="fill:#3194B0;" d="M296.205,335.253v87.133c0,8.913,7.229,16.142,16.142,16.142c8.913,0,16.142-7.229,16.142-16.142
		v-87.133H296.205z"/>
	<path style="fill:#2B8199;" d="M312.353,335.253v103.275c8.913,0,16.142-7.229,16.142-16.142v-87.133H312.353z"/>
	<path style="fill:#6EBEC5;" d="M296.205,343.893v5.064h32.284v-5.064H296.205z M296.205,360.598h32.284v-5.064h-32.284V360.598z
		 M296.205,372.24h32.284v-5.064h-32.284V372.24z M296.205,383.886h32.284v-5.064h-32.284V383.886z M296.205,395.528h32.284v-5.064
		h-32.284V395.528z M296.205,407.169h32.284v-5.064h-32.284V407.169z M296.205,418.811h32.284v-5.064h-32.284V418.811z"/>
</g>
</svg>