<?xml version="1.0" encoding="iso-8859-1"?>
<!-- Uploaded to: SVG Repo, www.svgrepo.com, Generator: SVG Repo Mixer Tools -->
<svg version="1.1" id="Layer_1" xmlns="http://www.w3.org/2000/svg" xmlns:xlink="http://www.w3.org/1999/xlink" 
	 viewBox="0 0 512.004 512.004" xml:space="preserve">
<g>
	<path style="fill:#6EBEC5;" d="M74.982,437.02c-99.973-99.973-99.973-262.062,0-362.04c99.973-99.973,262.062-99.973,362.04,0
		c99.973,99.973,99.973,262.062,0,362.04C337.044,536.998,174.955,536.998,74.982,437.02L74.982,437.02z"/>
	<path style="fill:#CEE6E8;" d="M437.16,436.877l-0.143,0.143L437.16,436.877L437.16,436.877z M437.304,436.733l-0.108,0.108
		L437.304,436.733L437.304,436.733z M437.447,436.59l-0.097,0.097L437.447,436.59L437.447,436.59z M437.59,436.452l-0.087,0.092
		L437.59,436.452L437.59,436.452z M437.729,436.308l-0.077,0.077L437.729,436.308L437.729,436.308z M437.872,436.165l-0.077,0.077
		L437.872,436.165L437.872,436.165z M438.01,436.022l-0.072,0.072L438.01,436.022L438.01,436.022z M438.154,435.883l-0.072,0.072
		L438.154,435.883L438.154,435.883z M438.287,435.745l-0.061,0.061L438.287,435.745L438.287,435.745z M438.43,435.602l-0.061,0.061
		L438.43,435.602L438.43,435.602z M438.568,435.459l-0.056,0.056L438.568,435.459L438.568,435.459z M438.707,435.32l-0.056,0.056
		L438.707,435.32L438.707,435.32z M438.84,435.182l-0.046,0.046L438.84,435.182L438.84,435.182z M438.973,435.044l-0.041,0.041
		L438.973,435.044L438.973,435.044z M439.101,434.916l-0.026,0.026L439.101,434.916L439.101,434.916z M439.213,434.798
		L439.213,434.798L439.213,434.798L439.213,434.798z"/>
	<path style="fill:#59ABB3;" d="M129.674,368.576c-3.656,0-6.625,2.965-6.625,6.625c0,3.656,2.964,6.625,6.625,6.625
		c3.656,0,6.625-2.964,6.625-6.625C136.299,371.54,133.329,368.576,129.674,368.576L129.674,368.576z M110.12,344.532v0.01V344.532
		L110.12,344.532z M110.115,344.323v0.015V344.323L110.115,344.323z M110.115,343.703v0.036V343.703L110.115,343.703z
		 M110.115,343.601v0.026V343.601L110.115,343.601z M110.115,343.488v0.046V343.488L110.115,343.488z M110.11,343.391v0.02V343.391
		L110.11,343.391z M110.11,343.278v0.036V343.278L110.11,343.278z M110.11,343.171v0.036V343.171L110.11,343.171z M110.11,343.048
		v0.056V343.048L110.11,343.048z M110.11,342.94v0.061V342.94L110.11,342.94z M110.11,342.827v0.067V342.827L110.11,342.827z
		 M110.11,342.725v0.056V342.725L110.11,342.725z M110.11,342.571L110.11,342.571v0.108V342.571L110.11,342.571z M117.427,257.405
		h-2.109h0.486c0.799,2.212,1.848,3.917,3.082,4.833c0.225,6.41-1.162,17.731-2.365,24.55c1.751-9.923,3.912-29.379,0.906-29.379
		L117.427,257.405L117.427,257.405z M115.286,257.405h0.005H115.286L115.286,257.405z M115.256,257.405L115.256,257.405
		L115.256,257.405L115.256,257.405z M102.031,168.916v0.026V168.916L102.031,168.916z M115.819,127.588
		c-6.927,14.935-13.85,31.78-13.85,39.429c0,0.62,0.02,1.244,0.061,1.864c-0.041-0.625-0.061-1.244-0.061-1.864
		C101.969,159.363,108.897,142.518,115.819,127.588L115.819,127.588z M129.674,99.633L129.674,99.633
		c0.082,0.154,27.704,52.101,27.704,67.379c0,8.146-3.517,16.594-9.114,22.712h4.168v25.308v4.531v6.938v4.531v12.032h-1.684
		c-0.143,7.972-3.098,14.341-6.723,14.341h-2.104v0.005c-1.085,0-1.495,2.54-1.495,6.257c0,7.741,1.787,20.577,2.98,26.117
		c2.76,12.805,5.832,33.428,5.832,52.787c0,38.369-8.76,69.473-19.564,69.473c-0.799,0-1.582-0.169-2.355-0.497
		c3.21,4.255,97.254,97.797,97.874,98.534c10.25,1.234,20.562,1.853,30.874,1.853c65.495,0,130.98-24.94,180.956-74.911l0.143-0.143
		l0.036-0.036l0.108-0.108l0.046-0.046l0.097-0.097l0.051-0.051l0.087-0.092l0.061-0.061l0.077-0.077l0.067-0.067l0.077-0.077
		l0.067-0.072l0.072-0.072l0.067-0.067l0.072-0.072l0.077-0.077l0.061-0.061l0.082-0.082l0.061-0.061l0.082-0.082l0.056-0.056
		l0.082-0.082l0.056-0.056l0.087-0.087l0.046-0.046l0.097-0.097l0.041-0.041l0.102-0.102l0.026-0.026l0.113-0.118l0,0
		c45.773-46.879,69.929-106.977,72.52-167.823c-1.382-1.449-146.15-146.299-161.454-161.475
		c14.879,16.799,23.926,38.876,23.926,63.027h7.962v24.812c-4.731,0-8.561,3.835-8.561,8.561c0,4.731,3.835,8.561,8.561,8.561
		v11.223c-4.731,0-8.561,3.835-8.561,8.561c0,4.731,3.835,8.561,8.561,8.561v103.997c-4.731,0-8.561,3.835-8.561,8.561
		c0,4.731,3.835,8.566,8.561,8.566v11.223c-4.731,0-8.561,3.835-8.561,8.561c0,4.731,3.835,8.561,8.561,8.561v22.052H175.948
		v-22.052c4.731,0,8.561-3.835,8.561-8.561c0-4.731-3.835-8.561-8.561-8.561v-11.223c4.731,0,8.561-3.835,8.561-8.566
		c0-4.731-3.835-8.561-8.561-8.561V238.81c4.731,0,8.561-3.835,8.561-8.561c0-4.731-3.835-8.561-8.561-8.561v-11.223
		c4.731,0,8.561-3.835,8.561-8.561c0-4.731-3.835-8.561-8.561-8.561v-24.812h7.962c0-3.523,0.195-6.999,0.568-10.424
		C181.775,153.121,129.674,99.633,129.674,99.633L129.674,99.633z M279.06,78.441c-49.674,0-90.086,40.412-90.086,90.086h90.086
		h90.086C369.146,118.853,328.734,78.441,279.06,78.441L279.06,78.441z M264.575,74.478l-0.041,0.005L264.575,74.478L264.575,74.478
		z M264.724,74.452l-0.092,0.015L264.724,74.452L264.724,74.452z M264.877,74.432l-0.118,0.015L264.877,74.432L264.877,74.432z
		 M265.026,74.411l-0.133,0.02L265.026,74.411L265.026,74.411z M282.603,73.444h0.01H282.603L282.603,73.444z M279.06,73.377
		c-4.762,0-9.452,0.353-14.024,1.029C269.613,73.731,274.293,73.377,279.06,73.377c1.157,0,2.314,0.02,3.466,0.061
		C281.374,73.398,280.217,73.377,279.06,73.377L279.06,73.377z"/>
	<path style="fill:#F1B14F;" d="M157.378,167.012c0,15.299-12.406,31.672-27.704,31.672s-27.704-16.369-27.704-31.672
		c0-15.299,27.704-67.379,27.704-67.379S157.378,151.713,157.378,167.012L157.378,167.012z"/>
	<path style="fill:#E46A5D;" d="M108.589,224.658v17.797c0,8.259,3.011,14.95,6.728,14.95h2.109v0.005
		c3.348,0,0.282,24.177-1.485,32.374c-2.76,12.805-5.832,33.428-5.832,52.787c0,38.369,8.76,69.473,19.564,69.473
		c10.803,0,19.564-31.104,19.564-69.473c0-19.359-3.072-39.982-5.832-52.787c-1.766-8.197-4.833-32.374-1.485-32.374v-0.005h2.104
		c3.717,0,6.728-6.692,6.728-14.95v-17.797L108.589,224.658L108.589,224.658z M129.674,381.821c-3.656,0-6.625-2.964-6.625-6.625
		c0-3.656,2.964-6.625,6.625-6.625c3.656,0,6.625,2.965,6.625,6.625C136.299,378.857,133.329,381.821,129.674,381.821
		L129.674,381.821z"/>
	<path style="fill:#D45446;" d="M129.674,224.658v143.918c3.656,0,6.625,2.965,6.625,6.625c0,3.656-2.964,6.625-6.625,6.625v30.218
		c10.803,0,19.564-31.104,19.564-69.473c0-19.359-3.072-39.982-5.832-52.787c-1.766-8.197-4.833-32.374-1.485-32.374v-0.005h2.104
		c3.717,0,6.728-6.692,6.728-14.95v-17.797L129.674,224.658L129.674,224.658z"/>
	<polygon style="fill:#FFFFFF;" points="152.432,243.064 106.91,243.064 106.91,189.729 152.432,189.729 	"/>
	<path style="fill:#59928E;" d="M157.378,167.012c0,8.146-3.517,16.594-9.114,22.712l0,0
		C153.86,183.606,157.378,175.158,157.378,167.012L157.378,167.012z M129.674,99.633L129.674,99.633
		c0.082,0.154,27.704,52.101,27.704,67.379C157.378,151.734,129.756,99.786,129.674,99.633L129.674,99.633z"/>
	<path style="fill:#F0973E;" d="M129.674,99.633v90.097h18.591c5.596-6.118,9.114-14.572,9.114-22.712
		C157.378,151.734,129.756,99.786,129.674,99.633L129.674,99.633L129.674,99.633z"/>
	<polygon style="fill:#CEEAF2;" points="152.432,243.064 129.674,243.064 129.674,189.729 152.432,189.729 	"/>
	<path style="fill:#DA5549;" d="M129.674,243.341H108.63c0.061,2.309,0.358,4.454,0.84,6.364h20.204V243.341L129.674,243.341z"/>
	<path style="fill:#CA4337;" d="M150.712,243.341h-21.043v6.364h20.204C150.358,247.795,150.65,245.645,150.712,243.341
		L150.712,243.341z"/>
	<polygon style="fill:#CEEAF2;" points="129.674,215.037 106.91,215.037 106.91,219.563 129.674,219.563 	"/>
	<polygon style="fill:#A6D7E6;" points="152.432,215.037 129.674,215.037 129.674,219.563 152.432,219.563 	"/>
	<polygon style="fill:#CEEAF2;" points="129.674,226.501 106.91,226.501 106.91,231.032 129.674,231.032 	"/>
	<polygon style="fill:#A6D7E6;" points="152.432,226.501 129.674,226.501 129.674,231.032 152.432,231.032 	"/>
	<path style="fill:#E46A5D;" d="M279.06,263.677c-52.465,0-95.15-42.68-95.15-95.145s42.685-95.15,95.15-95.15
		s95.15,42.685,95.15,95.15C374.21,220.992,331.524,263.677,279.06,263.677L279.06,263.677z M279.06,78.441
		c-49.674,0-90.086,40.412-90.086,90.086c0,49.669,40.412,90.086,90.086,90.086s90.086-40.412,90.086-90.086
		C369.146,118.853,328.734,78.441,279.06,78.441L279.06,78.441z"/>
	<path style="fill:#CEEAF2;" d="M373.606,379.722c0-4.731,3.835-8.561,8.561-8.561v-11.223c-4.731,0-8.561-3.835-8.561-8.566
		c0-4.731,3.835-8.561,8.561-8.561V238.81c-4.731,0-8.561-3.835-8.561-8.561c0-4.731,3.835-8.561,8.561-8.561v-11.223
		c-4.731,0-8.561-3.835-8.561-8.561c0-4.731,3.835-8.561,8.561-8.561v-24.812H175.948v24.812c4.731,0,8.561,3.835,8.561,8.561
		c0,4.731-3.835,8.561-8.561,8.561v11.223c4.731,0,8.561,3.835,8.561,8.561c0,4.731-3.835,8.561-8.561,8.561v103.997
		c4.731,0,8.561,3.835,8.561,8.561c0,4.731-3.835,8.566-8.561,8.566v11.223c4.731,0,8.561,3.835,8.561,8.561
		c0,4.731-3.835,8.561-8.561,8.561v22.052h206.223v-22.052C377.441,388.283,373.606,384.453,373.606,379.722L373.606,379.722z"/>
	<polygon style="fill:#CE655A;" points="374.21,168.527 369.146,168.527 369.146,168.527 374.21,168.527 	"/>
	<path style="fill:#BAE0EC;" d="M382.171,388.283H279.06v22.052h103.112L382.171,388.283L382.171,388.283z M382.171,359.933H279.06
		v11.223h103.112L382.171,359.933L382.171,359.933z M382.171,238.81H279.06v103.997h103.112L382.171,238.81L382.171,238.81z
		 M382.171,210.46H279.06v11.223h103.112L382.171,210.46L382.171,210.46z M382.171,168.527h-7.962h-5.064H279.06v24.812h103.112
		L382.171,168.527L382.171,168.527z"/>
	<path style="fill:#BAE0EC;" d="M279.06,371.156H175.948c4.731,0,8.561,3.835,8.561,8.561c0,4.731-3.835,8.561-8.561,8.561H279.06
		V371.156L279.06,371.156z"/>
	<path style="fill:#A8D7E6;" d="M382.171,371.156H279.06v17.126h103.112c-4.731,0-8.561-3.835-8.561-8.561
		C373.606,374.991,377.441,371.156,382.171,371.156L382.171,371.156z"/>
	<path style="fill:#BAE0EC;" d="M279.06,342.807H175.948c4.731,0,8.561,3.835,8.561,8.561c0,4.731-3.835,8.566-8.561,8.566H279.06
		V342.807L279.06,342.807z"/>
	<path style="fill:#A8D7E6;" d="M382.171,342.807H279.06v17.126h103.112c-4.731,0-8.561-3.835-8.561-8.566
		C373.606,346.642,377.441,342.807,382.171,342.807L382.171,342.807z"/>
	<path style="fill:#BAE0EC;" d="M279.06,193.334H175.948c4.731,0,8.561,3.835,8.561,8.561c0,4.731-3.835,8.561-8.561,8.561H279.06
		V193.334L279.06,193.334z"/>
	<path style="fill:#A8D7E6;" d="M382.171,193.334H279.06v17.126h103.112c-4.731,0-8.561-3.835-8.561-8.561
		C373.606,197.169,377.441,193.334,382.171,193.334L382.171,193.334z"/>
	<path style="fill:#BAE0EC;" d="M279.06,221.688H175.948c4.731,0,8.561,3.835,8.561,8.561c0,4.731-3.835,8.561-8.561,8.561H279.06
		V221.688L279.06,221.688z"/>
	<path style="fill:#A8D7E6;" d="M382.171,221.688H279.06v17.126h103.112c-4.731,0-8.561-3.835-8.561-8.561
		C373.606,225.518,377.441,221.688,382.171,221.688L382.171,221.688z"/>
	<rect x="175.974" y="255.839" style="fill:#FFFFFF;" width="152.356" height="71.731"/>
	<path style="fill:#F1B14F;" d="M265.113,168.527v96.072c0,4.731,3.835,8.566,8.566,8.566c4.731,0,8.566-3.835,8.566-8.566v-39.956
		h0.031c0.323-4.419,4.04-7.869,8.515-7.869c4.526,0,8.192,3.451,8.515,7.869h0.056l0.01,82.698c0,4.731,3.835,8.566,8.566,8.566
		c4.731,0,8.566-3.835,8.566-8.566v-98.867h0.051c0.323-4.419,4.04-7.869,8.515-7.869c4.526,0,8.192,3.451,8.515,7.869h0.046V233.9
		c0,4.731,3.835,8.566,8.566,8.566c4.731,0,8.566-3.835,8.566-8.566v-65.372H265.113z M342.189,250.12
		c-4.731,0-8.566,3.835-8.566,8.566c0,4.731,3.835,8.566,8.566,8.566c4.731,0,8.566-3.835,8.566-8.566
		C350.755,253.955,346.92,250.12,342.189,250.12z"/>
</g>
</svg>