<?xml version="1.0" encoding="iso-8859-1"?>
<!-- Uploaded to: SVG Repo, www.svgrepo.com, Generator: SVG Repo Mixer Tools -->
<svg version="1.1" id="Layer_1" xmlns="http://www.w3.org/2000/svg" xmlns:xlink="http://www.w3.org/1999/xlink" 
	 viewBox="0 0 512.004 512.004" xml:space="preserve">
<g>
	<path style="fill:#6EBEC5;" d="M74.982,437.02c-99.973-99.973-99.973-262.062,0-362.04c99.973-99.973,262.062-99.973,362.04,0
		c99.973,99.973,99.973,262.062,0,362.04C337.044,536.998,174.955,536.998,74.982,437.02L74.982,437.02z"/>
	<path style="fill:#CEE6E8;" d="M437.017,437.02l-0.527,0.527L437.017,437.02L437.017,437.02z M437.16,436.877l-0.143,0.143
		L437.16,436.877L437.16,436.877z M437.309,436.733l-0.108,0.108L437.309,436.733L437.309,436.733z M437.447,436.59l-0.087,0.087
		L437.447,436.59L437.447,436.59z M437.59,436.447l-0.077,0.077L437.59,436.447L437.59,436.447z M437.734,436.303l-0.061,0.067
		L437.734,436.303L437.734,436.303z M437.877,436.16l-0.061,0.061L437.877,436.16L437.877,436.16z M438.015,436.022l-0.056,0.056
		L438.015,436.022L438.015,436.022z M438.159,435.878l-0.051,0.051L438.159,435.878L438.159,435.878z M438.297,435.735l-0.036,0.036
		L438.297,435.735L438.297,435.735z M438.435,435.597l-0.036,0.036L438.435,435.597L438.435,435.597z M438.573,435.453l-0.026,0.026
		L438.573,435.453L438.573,435.453z M438.707,435.315l-0.015,0.015L438.707,435.315L438.707,435.315z M438.84,435.182
		L438.84,435.182L438.84,435.182L438.84,435.182z"/>
	<path style="fill:#59ABB3;" d="M104.637,346.483l0.01,4.46H75.335c2.493,5.545,6.246,10.373,10.844,14.234
		c1.546,1.869,17.444,17.664,18.56,18.734l0.02,5.857l-0.082-26.675L104.637,346.483L104.637,346.483z M104.504,291.08
		L104.504,291.08l0.01,4.275c-13.046,2.412-23.885,11.1-29.179,22.876l29.292,25.626L104.504,291.08L104.504,291.08z
		 M104.591,278.249L104.591,278.249L104.591,278.249L104.591,278.249L104.591,278.249z M411.509,163.167
		c3.256,4.454,5.181,9.948,5.181,15.892v88.008l-9.431,11.182l-0.02,12.831l-0.082,72.023v26.947h-17.413H122.255h-17.5
		l122.998,120.34c9.4,1.039,18.852,1.556,28.298,1.556c65.275,0,130.529-24.765,180.439-74.394l0.527-0.527l0.143-0.143l0.036-0.036
		l0.108-0.108l0.056-0.056l0.087-0.087l0.067-0.067l0.077-0.077l0.077-0.077l0.061-0.067l0.082-0.082l0.061-0.061l0.087-0.087
		l0.056-0.056l0.087-0.092l0.051-0.051l0.102-0.102l0.036-0.036l0.108-0.108l0.036-0.036l0.113-0.113l0.026-0.026l0.123-0.123
		l0.015-0.015l0.133-0.133l0,0c46.945-47.887,71.229-109.645,72.986-171.919C510.822,262.188,418.554,169.797,411.509,163.167
		L411.509,163.167z M121.645,152.118c-14.602,0.323-26.337,12.262-26.337,26.941C95.308,164.38,107.043,152.44,121.645,152.118
		L121.645,152.118z M390.046,152.113h0.01H390.046L390.046,152.113z M389.939,152.113h0.02H389.939L389.939,152.113z
		 M389.841,152.107h0.026H389.841L389.841,152.107z M313.86,90.596H198.686v61.517h129.188h47.488v-0.01h-5.125L313.86,90.596
		L313.86,90.596z"/>
	<path style="fill:#F1B14F;" d="M389.744,152.107H122.255c-14.884,0-26.947,12.063-26.947,26.947v88.008l9.283,11.182l-0.082,12.831
		l0.169,72.023l0.082,26.947h17.5h267.489h17.413v-26.947l0.082-72.023l0.02-12.831l9.431-11.182v-88.003
		C416.691,164.175,404.628,152.107,389.744,152.107L389.744,152.107z"/>
	<path style="fill:#E46A5D;" d="M416.691,224.315v-45.261c0-14.884-12.063-26.947-26.947-26.947H122.255
		c-14.884,0-26.947,12.063-26.947,26.947v45.261H416.691L416.691,224.315z"/>
	<path style="fill:#F0A044;" d="M327.874,278.249H198.686v111.8h-14.561v-111.8v111.8h143.749L327.874,278.249L327.874,278.249z
		 M327.874,229.983H198.686v37.084h129.188V229.983L327.874,229.983z"/>
	<path style="fill:#EF903B;" d="M198.686,278.249h-14.561v111.8h14.561V278.249L198.686,278.249z M198.686,229.983h-14.561v37.084
		h14.561V229.983L198.686,229.983z"/>
	<polygon style="fill:#59928E;" points="95.308,267.067 95.308,267.067 104.555,278.249 104.586,278.249 	"/>
	<path style="fill:#F0973E;" d="M184.125,267.067H95.308l9.277,11.182h79.539L184.125,267.067L184.125,267.067z M416.691,267.067
		h-88.817v11.182h79.386L416.691,267.067L416.691,267.067z"/>
	<polygon style="fill:#EF8836;" points="327.874,267.067 198.686,267.067 198.686,278.249 327.874,278.249 	"/>
	<polygon style="fill:#EE7B2F;" points="198.686,267.067 184.125,267.067 184.125,278.249 198.686,278.249 	"/>
	<path style="fill:#F0973E;" d="M118.625,224.315H95.308v0.072h23.316L118.625,224.315L118.625,224.315z M184.125,224.315h-21.074
		v0.072h21.074V224.315L184.125,224.315z M350.54,224.315h-22.666v0.072h22.666V224.315L350.54,224.315z M416.691,218.801
		L416.691,218.801v5.519h-21.724v0.072h21.724L416.691,218.801L416.691,218.801z"/>
	<path style="fill:#E35A49;" d="M118.625,218.801H95.308v5.519h23.316L118.625,218.801L118.625,218.801z M350.54,218.801h-22.666
		v5.519H184.125v-5.519h-21.074v5.519h21.074h14.561h129.188h22.666L350.54,218.801L350.54,218.801z M416.691,218.801h-21.724v5.519
		h21.724L416.691,218.801L416.691,218.801z"/>
	<polygon style="fill:#EF8836;" points="327.874,224.315 198.686,224.315 198.686,224.392 327.874,224.392 	"/>
	<polygon style="fill:#EE7B2F;" points="198.686,224.315 184.125,224.315 184.125,224.392 198.686,224.392 	"/>
	<path style="fill:#F5C984;" d="M118.625,224.392H95.308v5.591h23.316L118.625,224.392L118.625,224.392z M184.125,224.392h-21.074
		v5.591h21.074V224.392L184.125,224.392z M350.54,224.392h-22.666v5.591h22.666V224.392L350.54,224.392z M416.691,224.392
		L416.691,224.392h-21.724v5.591h21.724L416.691,224.392L416.691,224.392z"/>
	<polygon style="fill:#F5BD7C;" points="327.874,224.392 198.686,224.392 198.686,229.983 327.874,229.983 	"/>
	<polygon style="fill:#F4B276;" points="198.686,224.392 184.125,224.392 184.125,229.983 198.686,229.983 	"/>
	<polygon style="fill:#DD574B;" points="327.874,152.107 184.125,152.107 198.686,168.051 198.686,218.801 327.874,218.801 	"/>
	<polygon style="fill:#DC4A3B;" points="327.874,218.801 198.686,218.801 198.686,224.315 184.125,224.315 184.125,218.801 
		184.125,224.315 327.874,224.315 	"/>
	<polygon style="fill:#D6483D;" points="184.125,152.107 184.125,152.107 184.125,218.801 198.686,218.801 198.686,168.051 	"/>
	<polygon style="fill:#D53D30;" points="198.686,218.801 184.125,218.801 184.125,224.315 198.686,224.315 	"/>
	<polygon style="fill:#5AABB3;" points="118.625,245.665 163.051,245.665 163.051,203.901 118.625,203.901 	"/>
	<polygon style="fill:#5AABB3;" points="350.54,203.901 350.54,245.665 394.966,245.665 394.966,203.901 	"/>
	<polygon style="fill:#31848E;" points="163.051,224.392 118.625,224.392 118.625,245.665 163.051,245.665 	"/>
	<polygon style="fill:#31848E;" points="394.966,224.392 350.54,224.392 350.54,245.665 394.966,245.665 	"/>
	<polygon style="fill:#FFFFFF;" points="198.686,90.596 198.686,152.107 207.155,152.107 207.155,107.912 305.392,107.912 
		305.392,152.107 313.86,152.107 313.86,90.596 	"/>
	<rect x="207.073" y="100.452" style="fill:#CEEAF2;" width="98.304" height="7.46"/>
	<path style="fill:#FFFFFF;" d="M247.285,350.047h-98.642c-6.047,14.397-20.27,24.515-36.864,24.515
		c-16.241,0-30.188-9.702-36.444-23.613h39.414l9.441-16.358l-9.441-16.358H75.335c6.257-13.911,20.204-23.613,36.444-23.613
		c16.594,0,30.822,10.112,36.864,24.515h98.637c5.586-10.701,16.768-18.017,29.67-18.017c13.599,0,25.283,8.125,30.52,19.773
		h-33.009l-7.91,13.696l7.91,13.696h33.009c-5.238,11.648-16.922,19.773-30.52,19.773
		C264.053,368.059,252.871,360.747,247.285,350.047z"/>
	<path style="fill:#CEEAF2;" d="M247.285,350.047h-98.642c-6.047,14.397-20.27,24.515-36.864,24.515
		c-16.241,0-30.193-9.702-36.444-23.613h39.414l9.441-16.358h142.372l7.91,13.696h33.009c-5.238,11.648-16.922,19.773-30.52,19.773
		C264.053,368.059,252.871,360.747,247.285,350.047z"/>
	<path style="fill:#3194B0;" d="M431.088,331.994l-17.572-30.438h-35.149l-17.577,30.438l17.577,30.438h35.149L431.088,331.994z
		 M380.794,331.994c0-8.366,6.779-15.145,15.145-15.145s15.145,6.779,15.145,15.145s-6.779,15.145-15.145,15.145
		S380.794,340.36,380.794,331.994z"/>
	<path style="fill:#2B8199;" d="M431.088,331.994h-20.004c0,8.366-6.779,15.145-15.145,15.145s-15.145-6.779-15.145-15.145H360.79
		l17.572,30.438h35.149L431.088,331.994z"/>
</g>
</svg>