<?xml version="1.0" standalone="no"?>
<!DOCTYPE svg PUBLIC "-//W3C//DTD SVG 20010904//EN"
 "http://www.w3.org/TR/2001/REC-SVG-20010904/DTD/svg10.dtd">
<svg version="1.0" xmlns="http://www.w3.org/2000/svg"
 width="300.000000pt" height="220.000000pt" viewBox="0 0 300.000000 220.000000"
 preserveAspectRatio="xMidYMid meet">
<metadata>
Created by potrace 1.10, written by Peter Selinger 2001-2011
</metadata>
<g transform="translate(0.000000,220.000000) scale(0.100000,-0.100000)"
fill="#000000" stroke="none">
<path d="M210 1253 l0 -777 99 98 c54 54 104 102 111 106 10 6 6 16 -12 41
-52 72 -60 150 -25 258 l24 72 -31 16 c-50 25 -103 71 -125 107 -19 30 -21 49
-21 190 0 154 11 236 35 266 12 14 75 206 75 227 0 16 51 63 68 63 21 0 222
-63 222 -70 0 -3 -4 -11 -9 -19 -12 -18 -75 -6 -99 19 -23 25 -62 33 -94 21
-22 -8 -31 -25 -58 -113 -18 -57 -36 -128 -41 -158 -4 -30 -20 -91 -34 -135
-31 -99 -31 -136 -1 -201 41 -88 145 -154 264 -167 l52 -6 0 179 0 180 143 0
143 0 32 105 c18 57 32 115 32 128 0 38 -33 59 -92 62 -63 2 -98 18 -98 45 0
11 3 20 7 20 4 0 58 -16 120 -36 109 -34 113 -37 118 -68 5 -22 -5 -70 -29
-152 -33 -112 -36 -130 -36 -255 l0 -134 83 81 c45 44 143 138 219 208 l136
127 34 -33 c18 -19 128 -121 243 -228 116 -107 212 -197 215 -200 3 -3 22 -21
43 -39 l37 -35 0 492 0 492 -875 0 -875 0 0 -777z m1700 731 c10 -10 16 -831
6 -841 -2 -2 -39 28 -82 68 -77 70 -291 269 -323 299 -60 56 -108 90 -126 90
-12 0 -32 -10 -46 -22 -63 -57 -258 -236 -293 -270 -22 -21 -43 -38 -48 -38
-30 0 -19 163 20 284 37 114 40 154 12 188 -28 36 -213 91 -254 75 -56 -22 -8
-85 75 -98 83 -13 87 -22 55 -123 -15 -47 -34 -92 -41 -100 -11 -11 -45 -14
-132 -15 -160 -2 -153 7 -153 -187 0 -173 -3 -180 -69 -162 -123 34 -211 124
-211 214 0 36 33 171 87 354 44 148 61 165 129 124 61 -37 124 -29 124 16 0
25 -28 46 -95 70 -101 37 -142 45 -170 32 -30 -14 -61 -62 -76 -117 -16 -63
-41 -126 -47 -120 -10 10 -11 249 -1 267 9 17 44 18 582 20 878 4 1066 3 1077
-8z m-1546 -951 c3 -7 -1 -34 -9 -60 -21 -68 -19 -153 5 -215 11 -29 20 -56
20 -60 0 -9 -113 -118 -122 -118 -5 0 -8 122 -8 270 l0 271 55 -38 c29 -21 56
-44 59 -50z"/>
<path d="M877 1420 c-4 -8 -20 -59 -37 -113 -39 -123 -75 -167 -164 -199 -48
-18 -56 -24 -37 -26 27 -4 101 17 101 28 0 4 8 10 18 12 25 7 83 98 100 156
27 96 33 126 29 141 -3 14 -5 14 -10 1z"/>
<path d="M900 1303 c-12 -27 -27 -65 -33 -86 -13 -41 -64 -102 -110 -131 -16
-10 -51 -24 -77 -32 -56 -16 -74 -34 -35 -34 77 0 207 95 241 176 15 36 45
154 39 154 -2 0 -14 -21 -25 -47z"/>
<path d="M491 953 c-12 -35 -21 -75 -21 -89 0 -29 25 -94 37 -94 4 0 29 18 56
41 l47 41 0 81 0 82 -49 1 -49 0 -21 -63z m82 15 c2 -7 3 -32 2 -56 -2 -32 -9
-49 -30 -68 -26 -24 -29 -24 -38 -9 -11 21 -2 97 15 125 14 22 43 27 51 8z"/>
<path d="M775 671 l-1 -211 86 0 c180 0 269 31 305 106 56 118 7 262 -100 293
-22 7 -96 15 -165 18 l-125 6 0 -212z m286 145 c19 -8 45 -26 59 -41 22 -24
25 -35 25 -101 -1 -126 -49 -163 -214 -167 -55 -1 -103 2 -108 6 -8 9 -14 270
-6 300 4 15 18 17 107 17 67 0 116 -5 137 -14z"/>
<path d="M902 775 c-19 -23 -22 -41 -22 -110 0 -72 3 -84 23 -103 59 -55 164
-1 174 89 9 79 -33 135 -109 145 -41 6 -47 4 -66 -21z m123 -41 c18 -24 19
-103 0 -128 -13 -17 -78 -36 -100 -29 -7 2 -12 174 -5 189 0 0 20 -2 45 -6 27
-4 52 -15 60 -26z"/>
<path d="M972 673 c-20 -55 -22 -64 -11 -57 10 6 39 65 39 79 0 16 -19 1 -28
-22z"/>
<path d="M1800 812 c-53 -26 -80 -74 -80 -142 0 -43 6 -65 23 -91 31 -46 61
-59 135 -59 l62 0 0 45 c0 44 0 44 -26 35 -37 -14 -52 -12 -74 10 -14 14 -20
33 -20 68 0 67 8 76 68 70 l50 -5 5 36 c2 20 -1 39 -7 43 -20 14 -101 8 -136
-10z"/>
<path d="M1964 821 c-2 -2 -4 -19 -4 -38 0 -32 2 -33 38 -33 l37 0 -3 -115 -3
-115 45 0 46 0 0 115 0 115 35 0 c34 0 35 1 35 38 l0 37 -111 0 c-61 0 -113
-2 -115 -4z"/>
<path d="M2281 812 c-45 -23 -71 -73 -71 -140 0 -106 43 -152 140 -152 93 0
140 54 140 160 0 72 -19 114 -60 135 -39 20 -107 19 -149 -3z m103 -68 c18
-17 22 -119 7 -143 -11 -17 -58 -18 -74 -2 -18 18 -16 139 3 151 22 14 47 12
64 -6z"/>
<path d="M2539 820 c0 -3 -1 -71 -2 -152 l-2 -148 48 0 48 0 -7 45 c-6 41 -4
45 14 45 15 0 27 -13 41 -45 19 -42 22 -45 58 -45 64 0 71 12 38 60 -15 22
-32 43 -37 46 -5 3 3 19 17 36 21 25 25 39 23 76 -4 66 -29 80 -146 84 -50 2
-92 1 -93 -2z m145 -82 c15 -25 -3 -52 -38 -56 -24 -3 -26 -1 -26 38 0 39 2
41 26 38 15 -2 32 -11 38 -20z m-77 -102 c-11 -27 -27 -17 -27 16 0 30 1 31
16 16 9 -9 14 -24 11 -32z"/>
<path d="M1196 798 c16 -17 21 -32 18 -58 -3 -30 -3 -32 5 -9 4 14 13 35 20
46 12 24 10 27 -34 37 l-30 8 21 -24z"/>
<path d="M1388 794 c-58 -31 -78 -136 -37 -188 90 -115 267 -28 229 113 -21
78 -117 116 -192 75z m133 -45 c52 -49 31 -136 -37 -157 -114 -35 -176 134
-64 177 39 15 70 9 101 -20z"/>
<path d="M1418 713 c-18 -20 -11 -50 16 -72 26 -22 66 1 66 37 0 15 -5 33 -12
40 -17 17 -53 15 -70 -5z m66 -19 c7 -19 -10 -44 -30 -44 -20 0 -36 34 -22 48
17 17 45 15 52 -4z"/>
<path d="M510 744 c0 -4 8 -16 18 -27 17 -20 16 -20 -25 -14 -24 3 -46 1 -49
-4 -3 -5 -3 -9 0 -9 2 0 63 -18 135 -40 143 -44 159 -47 142 -27 -8 10 -7 17
1 25 13 13 -2 20 -98 48 -31 9 -72 25 -90 36 -19 11 -34 17 -34 12z"/>
<path d="M1985 395 l0 -105 33 0 c32 0 32 0 26 40 l-7 40 37 0 c35 0 36 -1 36
-40 0 -38 2 -40 30 -40 l30 0 0 105 0 105 -30 0 c-29 0 -30 -2 -30 -44 0 -43
0 -44 -32 -41 -32 2 -33 4 -30 44 4 41 3 41 -30 41 l-34 0 1 -105z"/>
<path d="M2699 439 c-50 -18 -61 -96 -19 -134 27 -24 104 -17 108 10 2 17 -3
20 -34 20 -22 0 -39 5 -42 13 -3 11 6 13 39 10 38 -3 44 0 47 18 3 24 -25 60
-53 67 -11 3 -32 1 -46 -4z"/>
<path d="M2210 413 c-16 -21 -20 -37 -16 -61 8 -49 23 -62 72 -62 50 0 74 25
74 75 0 49 -25 75 -70 75 -30 0 -43 -6 -60 -27z m78 -57 c-4 -40 -32 -42 -36
-3 -2 16 -1 36 2 44 11 27 37 -6 34 -41z"/>
<path d="M2360 376 c0 -78 15 -96 63 -78 21 8 33 9 35 2 2 -5 14 -10 26 -10
22 0 23 4 22 75 l-1 76 -29 -3 c-28 -3 -29 -5 -30 -52 -1 -30 -6 -51 -13 -53
-10 -3 -13 11 -13 51 0 56 0 56 -30 56 l-30 0 0 -64z"/>
<path d="M2546 427 c-26 -19 -17 -59 17 -75 27 -13 37 -32 16 -32 -6 0 -19 5
-30 10 -11 7 -19 7 -19 1 0 -5 -3 -16 -6 -25 -5 -13 2 -16 44 -16 55 0 75 15
70 52 -2 15 -15 29 -37 39 -21 10 -30 19 -23 23 6 4 20 2 31 -3 19 -10 31 2
31 30 0 14 -74 11 -94 -4z"/>
</g>
</svg>
